<?xml version="1.0" standalone="no"?>
<!DOCTYPE svg PUBLIC "-//W3C//DTD SVG 20010904//EN"
 "http://www.w3.org/TR/2001/REC-SVG-20010904/DTD/svg10.dtd">
<svg version="1.0" xmlns="http://www.w3.org/2000/svg"
 width="220.000000pt" height="220.000000pt" viewBox="0 0 220.000000 220.000000"
 preserveAspectRatio="xMidYMid meet">
<metadata>
Created by potrace 1.11, written by Peter Selinger 2001-2013
</metadata>
<g transform="translate(0.000000,220.000000) scale(0.100000,-0.100000)"
fill="#000000" stroke="none">
<path d="M554 2015 c-22 -33 -59 -146 -95 -289 -30 -118 -48 -168 -34 -95 6
31 3 38 -20 53 -15 10 -32 15 -38 13 -13 -5 -28 -43 -47 -115 -10 -38 -13 -41
-30 -32 -11 6 -20 8 -20 5 0 -11 52 -75 60 -75 5 0 14 16 20 36 l12 36 42 -84
c22 -46 48 -84 57 -86 11 -2 27 21 54 74 38 77 38 78 32 173 -3 55 -2 85 3 71
4 -14 9 -43 10 -65 1 -22 5 -48 9 -59 6 -17 10 -15 34 14 42 49 32 26 -12 -30
-91 -116 -142 -283 -142 -475 -1 -140 5 -178 73 -454 45 -187 57 -220 81 -221
17 0 1 256 -29 468 -21 140 -10 221 42 331 128 265 468 370 738 228 88 -46
178 -139 220 -227 59 -123 66 -205 37 -420 -16 -119 -31 -364 -22 -373 11 -11
40 18 46 46 3 12 25 108 49 212 64 271 70 310 63 454 -9 206 -57 341 -169 476
l-50 60 55 -56 54 -57 10 77 11 76 -1 -90 c-1 -77 3 -98 25 -145 14 -30 28
-63 32 -72 14 -45 57 -7 97 86 13 31 27 56 31 56 3 0 11 -15 18 -32 l11 -33
30 33 c31 34 41 64 14 42 -19 -16 -17 -19 -41 64 -23 83 -43 100 -77 68 -17
-16 -23 -31 -20 -50 2 -15 -17 46 -41 136 -46 167 -78 250 -99 264 -18 11 -65
10 -90 -4 -76 -39 -273 -220 -261 -239 5 -8 -6 -9 -37 -3 -53 11 -259 12 -314
2 -26 -5 -35 -4 -25 2 12 8 5 20 -40 65 -65 67 -162 146 -207 169 -48 24 -89
21 -109 -9z m608 -295 c49 -14 81 -41 73 -62 -17 -45 -186 -65 -255 -30 -43
21 -52 55 -19 73 55 29 136 37 201 19z m-472 -54 c0 -2 -8 -10 -17 -17 -16
-13 -17 -12 -4 4 13 16 21 21 21 13z"/>
<path d="M1050 1704 c0 -8 5 -12 10 -9 6 4 8 11 5 16 -9 14 -15 11 -15 -7z"/>
<path d="M1100 1706 c0 -9 5 -16 10 -16 6 0 10 4 10 9 0 6 -4 13 -10 16 -5 3
-10 -1 -10 -9z"/>
<path d="M901 1283 c-18 -16 -21 -30 -22 -101 -2 -91 5 -106 53 -117 21 -5 33
-1 52 19 23 22 26 33 26 94 0 55 -4 75 -21 96 -24 30 -58 34 -88 9z"/>
<path d="M1192 1277 c-18 -20 -22 -35 -22 -96 0 -63 3 -75 25 -96 29 -30 45
-31 79 -4 24 19 26 26 26 100 0 66 -3 82 -20 99 -27 27 -62 25 -88 -3z"/>
<path d="M736 933 c18 -108 100 -213 202 -261 49 -23 70 -27 152 -27 87 0 101
3 162 33 101 49 174 145 193 255 l7 37 -87 0 -87 0 -15 -40 c-9 -22 -19 -40
-23 -40 -4 0 -15 18 -25 40 l-18 40 -107 0 -108 0 -16 -40 c-9 -22 -18 -40
-21 -40 -2 0 -14 18 -25 40 l-20 40 -86 0 -85 0 7 -37z"/>
</g>
</svg>
